<?xml version="1.0"?>
<svg width="107" height="87" viewBox="0 0 500.000000 405.000000" xmlns="http://www.w3.org/2000/svg" xmlns:svg="http://www.w3.org/2000/svg">
 <g class="layer">
  <title>Layer 1</title>
  <path d="m113,73c0,-3.08 -0.82,-12.07 1.6,-13.98c1.59,-1.25 5.41,-1.02 7.4,-1.02c0,0 74,0 74,0c0,0 0,15 0,15c-7.39,0.67 -14.14,4.63 -16.66,12c-1.84,5.39 -1.34,15.07 -1.34,21c0,0 0,38 0,38c0,0 -47,0 -47,0c0,0 0,-35 0,-35c0,-6.12 0.42,-15.3 -0.82,-21c-1.98,-9.12 -8.03,-14.17 -17.18,-15zm191,-15c0,0 82,0 82,0c0,0 0,15 0,15c-10.38,0.97 -16.86,7.51 -17,18c0,0 0,53 0,53c0,0 -48,0 -48,0c0,0 0,-50 0,-50c-0.05,-11.31 -4.93,-19.71 -17,-21c0,0 0,-15 0,-15zm13,178c0,0 -21,4.56 -21,4.56c-15.68,2.55 -32.9,0.82 -44.91,-10.73c-15.93,-15.33 -16.6,-44.47 -1.91,-60.82c8.46,-9.4 23.31,-14.46 35.82,-13.97c8.61,0.33 22.77,3.72 28.77,10.14c6.3,6.74 0.86,12.35 -3.67,10.98c-4.02,-1.22 -4.56,-6.44 -7.51,-10.12c-4.06,-5.03 -8.49,-5.96 -14.59,-6.04c-8.92,-0.1 -13.03,-0.46 -21,4.47c-20.98,12.95 -22.67,48.05 -4.96,64.35c7.86,7.23 14.8,8.3 24.96,8.18c6.16,-0.08 15.81,-2.07 18.98,-8.04c1.34,-2.54 1.07,-8 1.02,-10.96c-0.06,-2.81 0.01,-5.28 -2.31,-7.28c-3.32,-2.85 -5.75,-0.74 -7.69,-5.72c0,0 22,0 22,0c3.7,0.07 4.88,-0.17 7,3c-2.62,0.68 -4.6,1.12 -6.49,3.27c-3.8,4.32 -2.51,18.78 -2.51,24.73zm134,-79.56c9.67,-1.24 22.61,0.77 30.98,5.91c2.93,1.79 9.55,9.53 3.73,11.86c-5.62,2.24 -6.64,-6.84 -11.76,-10.51c-8.38,-6 -33.93,-6.17 -36.93,9.3c-1.35,6.96 4.27,11.95 9.98,14.67c10.02,4.78 28.2,4.76 39,12.88c14.34,10.8 10.68,33.59 -10,39.29c-6.97,1.92 -10.86,2.24 -18,2.16c-10.78,-0.13 -22.65,-3.37 -30.94,-10.52c-5.67,-4.88 -3.39,-8.59 0,-7.31c3.21,1.21 5.73,5.87 12.94,9.56c12.12,6.2 27.87,6.35 37.96,-3.77c2.43,-2.44 4.87,-5.45 5.42,-8.96c1.01,-6.48 -6.13,-12.26 -11.38,-14.65c-9.06,-4.13 -29.18,-4.9 -38.96,-12.88c-8.91,-7.27 -8.75,-21.1 -0.71,-29c5.09,-5.01 11.88,-6.76 18.67,-8.03zm-445,0.56c0,0 66,0 66,0c0,0 1,15 1,15c0,0 -1,1 -1,1c0,0 -2,0 -2,0c-1.42,-2.98 -2.67,-6.35 -5.21,-8.57c-5.22,-4.57 -17.05,-3.43 -23.79,-3.43c-4.04,0 -11.47,-0.85 -14.26,2.43c-1.76,2.07 -1.7,5.01 -1.74,7.57c0,0 0,27 0,27c0,0 23,0 23,0c0,0 8.78,-1.74 8.78,-1.74c0,0 4.22,-7.26 4.22,-7.26c0,0 2,0 2,0c1.42,5.83 1.63,16.25 0,22c0,0 -2,0 -2,0c0,0 -5.11,-7.15 -5.11,-7.15c0,0 -10.89,-1.85 -10.89,-1.85c0,0 -20,0 -20,0c0,0 0,22 0,22c0,0 0.74,7.94 0.74,7.94c0,0 8.26,8.06 8.26,8.06c0,0 -28,0 -28,0c1.95,-5 4.49,-2.81 7.26,-6.3c2.04,-2.56 1.73,-6.59 1.74,-9.7c0,0 0,-53 0,-53c-0.1,-7.39 -1.51,-9.75 -9,-11c0,0 0,-3 0,-3zm71,0c0,0 66,0 66,0c0,0 1,16 1,16c-6.3,-2.25 -3.52,-7.6 -12,-10.74c-5.01,-1.85 -20.01,-1.37 -26,-1.26c-2.32,0.05 -4.8,0.01 -6.69,1.6c-2.28,1.93 -2.26,4.67 -2.31,7.4c0,0 0,28 0,28c0,0 22,0 22,0c0,0 7.95,-1.17 7.95,-1.17c0,0 7.05,-7.83 7.05,-7.83c0,0 1,22 1,22c-5.44,-2.1 -3.16,-5.41 -9.04,-7.85c-4.51,-1.87 -22.98,-1.15 -28.96,-1.15c0,0 0,24 0,24c0.02,2.96 -0.19,6.29 2.31,8.4c1.89,1.59 4.37,1.55 6.69,1.6c6.35,0.11 24.93,0.66 29.98,-1.26c7.86,-2.98 4.44,-8.39 11.02,-10.74c0,0 -1,16 -1,16c0,0 -51,0 -51,0c-5.25,0 -14.85,1.7 -18,-3c8.51,-1.42 8.98,-4.12 9,-12c0,0 0,-53 0,-53c-0.02,-7.88 -0.49,-10.58 -9,-12c0,0 0,-3 0,-3zm75,1c0,0 33,0 33,0c8.86,0 16.59,-0.51 25,3.17c16.39,7.18 23.26,28.18 9.82,41.65c-7.43,7.43 -15.23,7.53 -23.82,11.18c8.65,2.95 11.44,10.19 18,15.79c2.7,2.29 6.29,4.67 9.98,3.43c1.65,-0.55 3.32,-1.86 4.24,-3.33c2.94,-4.69 -1.97,-7.59 -3.48,-11.89c-1.04,-2.96 -0.61,-6.71 3.3,-6.71c4.34,0 5.56,4.17 5.87,7.71c0.56,6.48 -0.69,15.06 -6.1,19.35c-2.16,1.72 -5.1,2.6 -7.81,2.99c-14.22,2.05 -21.31,-13.17 -30.04,-21.16c-8.53,-7.8 -11.77,-3.89 -13.96,-10.18c6.93,0 12.2,0.33 19,-1.77c4,-1.24 8.81,-3.8 11.96,-6.56c17.01,-14.88 4.28,-35.7 -14.96,-39.21c-5.44,-0.99 -16.53,-2.98 -19.83,2.68c-1.28,2.21 -1.16,5.37 -1.17,7.86c0,0 0,53 0,53c0.05,9.1 0.85,9.39 9,12c0,0 0,2 0,2c-5.62,1.6 -22.38,1.6 -28,0c0,0 0,-2 0,-2c9.19,-3.16 8.98,-4.22 9,-14c0,0 0,-52 0,-52c-0.1,-7.6 -0.87,-10.52 -9,-11c0,0 0,-3 0,-3zm178,0c0,0 29,0 29,0c-2.72,4.13 -4.82,2.53 -7.26,5.43c-2.05,2.44 -1.74,6.55 -1.74,9.57c-0.01,8.62 -0.74,36.46 0.9,43c3.01,11.98 13.11,20.22 25.52,20.18c11.84,-0.04 22.52,-7.66 25.79,-19.18c1.15,-4.05 0.79,-11.54 0.79,-16c0,0 0,-29 0,-29c-0.01,-3.19 0.41,-6.99 -2.31,-9.26c-3.12,-2.61 -4.82,-0.43 -7.69,-4.74c0,0 25,0 25,0c-2.87,4.31 -4.57,2.13 -7.69,4.74c-2.72,2.27 -2.3,6.07 -2.31,9.26c0,0 0,23 0,23c0,12.89 1.3,25.25 -7.52,35.96c-12.05,14.65 -40.33,14.81 -53.01,0.87c-7.15,-7.85 -8.45,-17.64 -8.47,-27.83c0,0 0,-34 0,-34c-0.21,-10.98 -5.03,-6.04 -9,-12zm-199,104c0,0 47,0 47,0c0,0 0,19 0,19c0,14.01 -0.22,29.3 18,31c0,0 0,14 0,14c0,0 -83,0 -83,0c0,0 0,-14 0,-14c14.87,-2.14 17.98,-11.61 18,-25c0,0 0,-25 0,-25zm190,0c0,0 48,0 48,0c0,0 0,21 0,21c0,14.57 -1.38,26.12 17,29c0,0 0,14 0,14c0,0 -82,0 -82,0c0,0 0,-14 0,-14c4.88,-0.77 7.26,-1.59 10.96,-5.11c7.69,-7.31 6.04,-15.29 6.04,-24.89c0,0 0,-20 0,-20z" fill="#000000" id="Selection" stroke="black"/>
 </g>

</svg>